<svg width="101.47mm" height="27.178mm" version="1.1" viewBox="0 0 101.47 27.178" xmlns="http://www.w3.org/2000/svg">
 <g transform="translate(24.274 -176.07)">
  <g fill="#fff" stroke-width=".94631" aria-label="ONYX">
   <path d="m-12.578 176.07c-8.6303 0-11.696 2.9525-11.696 13.589 0 10.637 3.066 13.589 11.696 13.589 8.6303 0 11.734-2.9525 11.734-13.589 0-10.637-3.1039-13.589-11.734-13.589zm0 5.4508c3.331 0 4.2395 1.7034 4.2395 8.1382 0 6.4349-0.90846 8.1383-4.2395 8.1383-3.331 0-4.2395-1.7034-4.2395-8.1383 0-6.4349 0.90846-8.1382 4.2395-8.1382z"/>
   <path d="m26.042 176.6h-6.5863l0.03785 12.643c0 1.552 0.11356 3.0282 0.26497 4.5801h-0.30282c-0.60564-1.5898-1.287-3.1418-1.9683-4.353l-5.9807-10.788c-0.75705-1.3627-1.287-2.0819-2.7632-2.0819h-3.331c-1.6277 0-2.4983 0.8706-2.4983 2.4982v23.62h6.6242v-13.097c0-1.4384-0.11356-2.9903-0.30282-4.4666h0.30282c0.41638 1.4384 1.0599 3.066 1.7034 4.2773l6.2078 11.204c0.7192 1.3627 1.287 2.0819 2.7632 2.0819h3.3689c1.6277 0 2.4604-0.8706 2.4604-2.4982z"/>
   <path d="m52.443 176.6h-7.3055l-3.7474 8.8196c-0.41638 1.0599-0.64349 2.3847-0.8706 3.5203h-0.45423c-0.18926-1.1356-0.41638-2.4226-0.8706-3.5203l-3.7474-8.8196h-7.3434l8.6303 17.828v8.2897h7.1162v-8.3654z"/>
   <path d="m70.037 202.71h7.1541l-6.6242-13.362 6.0942-12.756h-7.1162l-4.6937 10.599h-0.18926l-4.7315-10.599h-7.0784l6.0942 12.756-6.6242 13.362h7.1541l5.2236-11.356h0.11356z"/>
  </g>
 </g>
</svg>
