<svg width="66.356mm" height="66.352mm" version="1.1" viewBox="0 0 66.356 66.352" xmlns="http://www.w3.org/2000/svg">
 <g>
  <path d="m39.255 22.662-16.61 4.4504 4.4468 16.596 16.61-4.4504z" clip-rule="evenodd" fill="#7b7b7b" fill-rule="evenodd" stroke-width=".26421"/>
  <path d="m2.3584 30.836c-0.55228 0.55245-0.86808 1.2567-0.94933 1.9739l37.846-10.148-5.6901-21.237c-0.97057-0.11838-1.9821 0.19285-2.7318 0.93837l-28.474 28.473z" fill="#191919"/>
  <path d="m33.565 1.424 10.137 37.834 21.238-5.6901c0.10942-0.96496-0.20507-1.9678-0.94823-2.711l-28.488-28.488c-0.54529-0.54529-1.231-0.85829-1.9385-0.94458z" fill="#b3b3b3"/>
  <path d="m27.091 43.708 5.6901 21.237c0.9688 0.11942 1.9788-0.18951 2.7289-0.93106l28.481-28.48 0.0011-0.0011c0.5518-0.55218 0.86586-1.2484 0.94714-1.9652z" fill="#191919"/>
  <path d="m1.409 32.81c-0.10662 0.96236 0.20869 1.9619 0.94969 2.7029l28.488 28.488c0.54429 0.54429 1.2284 0.85652 1.9345 0.94348l-10.137-37.833c-3.348 0.87437-16.027 4.278-21.235 5.6982z" fill="#0a0a0a"/>
 </g>
 <g>
  <path d="m39.255 22.662-16.61 4.4504 4.4468 16.596 16.61-4.4504z" clip-rule="evenodd" fill="#7b7b7b" fill-rule="evenodd" stroke-width=".26421"/>
  <path d="m2.3584 30.836c-0.55228 0.55245-0.86808 1.2567-0.94933 1.9739l37.846-10.148-5.6901-21.237c-0.97057-0.11838-1.9821 0.19285-2.7318 0.93837l-28.474 28.473z" fill="#191919"/>
  <path d="m33.565 1.424 10.137 37.834 21.238-5.6901c0.10942-0.96496-0.20507-1.9678-0.94823-2.711l-28.488-28.488c-0.54529-0.54529-1.231-0.85829-1.9385-0.94458z" fill="#b3b3b3"/>
  <path d="m27.091 43.708 5.6901 21.237c0.9688 0.11942 1.9788-0.18951 2.7289-0.93106l28.481-28.48 0.0011-0.0011c0.5518-0.55218 0.86586-1.2484 0.94714-1.9652z" fill="#191919"/>
  <path d="m1.409 32.81c-0.10662 0.96236 0.20869 1.9619 0.94969 2.7029l28.488 28.488c0.54429 0.54429 1.2284 0.85652 1.9345 0.94348l-10.137-37.833c-3.348 0.87437-16.027 4.278-21.235 5.6982z" fill="#0a0a0a"/>
 </g>
</svg>
