<?xml version="1.0" encoding="UTF-8" standalone="no"?>
<svg
   xmlns:dc="http://purl.org/dc/elements/1.1/"
   xmlns:cc="http://creativecommons.org/ns#"
   xmlns:rdf="http://www.w3.org/1999/02/22-rdf-syntax-ns#"
   xmlns:svg="http://www.w3.org/2000/svg"
   xmlns="http://www.w3.org/2000/svg"
   xmlns:sodipodi="http://sodipodi.sourceforge.net/DTD/sodipodi-0.dtd"
   xmlns:inkscape="http://www.inkscape.org/namespaces/inkscape"
   width="301.62mm"
   height="61.383mm"
   version="1.1"
   viewBox="0 0 301.62 61.383"
   id="svg12"
   sodipodi:docname="patreon-rounded-optimized.svg"
   inkscape:version="0.92.3 (2405546, 2018-03-11)">
  <metadata
     id="metadata18">
    <rdf:RDF>
      <cc:Work
         rdf:about="">
        <dc:format>image/svg+xml</dc:format>
        <dc:type
           rdf:resource="http://purl.org/dc/dcmitype/StillImage" />
        <dc:title></dc:title>
      </cc:Work>
    </rdf:RDF>
  </metadata>
  <defs
     id="defs16" />
  <sodipodi:namedview
     pagecolor="#ffffff"
     bordercolor="#666666"
     borderopacity="1"
     objecttolerance="10"
     gridtolerance="10"
     guidetolerance="10"
     inkscape:pageopacity="0"
     inkscape:pageshadow="2"
     inkscape:window-width="1920"
     inkscape:window-height="1017"
     id="namedview14"
     showgrid="false"
     inkscape:zoom="0.99650776"
     inkscape:cx="570.79339"
     inkscape:cy="116.89452"
     inkscape:window-x="-8"
     inkscape:window-y="-8"
     inkscape:window-maximized="1"
     inkscape:current-layer="svg12" />
  <path
     d="M 0,30.69 V -0.002 H 301.63 V 61.381 H 0 Z"
     id="path2"
     inkscape:connector-curvature="0"
     style="fill:#fefbfb;stroke-width:0.26458001" />
  <path
     inkscape:connector-curvature="0"
     style="fill:#fe574f;fill-opacity:1;stroke:none;stroke-width:15;stroke-miterlimit:4;stroke-dasharray:none;stroke-opacity:1"
     d="M 7.9375002,-0.00206706 C 3.5401251,-0.00206706 0,3.5380582 0,7.9354333 V 30.690117 53.44325 c 0,4.397375 3.5401251,7.9375 7.9375002,7.9375 H 293.69267 c 4.39737,0 7.9375,-3.540125 7.9375,-7.9375 V 7.9354333 c 0,-4.3973751 -3.54013,-7.93750036 -7.9375,-7.93750036 z M 37.30315,20.804415 c 5.080601,0.0043 8.682538,5.193794 6.893637,9.931695 -0.678643,1.797346 -2.251639,3.506861 -3.895887,4.234367 -4.983281,2.203792 -10.472745,-1.350544 -10.472745,-6.780982 0,-4.170601 3.257396,-7.38908 7.474995,-7.38508 z m 214.21019,2.770374 c 0.29796,-0.0039 0.61203,0.0021 0.94516,0.01757 2.5067,0.1163 3.76791,0.609967 5.18831,2.030367 1.60963,1.609599 2.04225,2.935616 2.04225,6.258016 0,2.493399 -0.0832,3.06615 -0.58239,3.99924 -0.9225,1.724399 -1.8501,2.668913 -3.3321,3.393073 -2.23989,1.094502 -5.48529,1.106823 -7.57059,0.02842 -1.2202,-0.631002 -2.67039,-2.200024 -3.29179,-3.561025 -0.44263,-0.969499 -0.55573,-1.747213 -0.56172,-3.859712 -0.009,-3.1705 0.59114,-4.810866 2.35334,-6.435266 1.43255,-1.320402 2.7238,-1.843319 4.80953,-1.870687 z m -132.93298,0.001 c 3.40643,-0.02397 5.43678,1.20076 6.85746,4.086572 0.73856,1.5002 0.8457,1.990301 0.8537,3.893301 0.006,1.387901 -0.15716,2.672834 -0.4501,3.545004 -0.6078,1.809602 -2.19191,3.573071 -3.85041,4.28656 -2.1415,0.921221 -4.8058,0.950825 -6.9634,0.07751 -1.2237,-0.4953 -3.01848,-2.36392 -3.66851,-3.819922 -0.50874,-1.139399 -0.61582,-1.825503 -0.61082,-3.896403 0.007,-2.7579 0.44001,-4.131955 1.81591,-5.759855 1.3252,-1.56788 2.87007,-2.262668 5.31647,-2.391068 0.23956,-0.01258 0.47261,-0.02011 0.6997,-0.0217 z m -16.22795,0.0041 c 0.22691,0.0025 0.45999,0.01024 0.70022,0.02325 2.3879,0.1293 3.35328,0.52994 4.75578,1.97404 0.9003,0.926999 1.85844,3.203398 1.49862,3.560506 -0.2303,0.22852 -3.50078,0.774419 -3.74293,0.624768 -0.10675,-0.06598 -0.26673,-0.483094 -0.35553,-0.927073 -0.2528,-1.264193 -1.35318,-2.114085 -2.73679,-2.114085 -2.571895,0 -3.768793,1.569054 -3.779093,4.955255 -0.01021,3.3513 1.217385,5.154499 3.544483,5.206399 1.4274,0.0318 2.48658,-0.668041 3.00447,-1.986441 0.22631,-0.576091 0.58451,-1.031462 0.81184,-1.031462 0.97,0 3.48076,0.659235 3.47575,0.912606 -0.0137,0.658198 -1.04291,2.476428 -1.86965,3.303156 -0.4933,0.493302 -1.39281,1.116629 -1.99936,1.38493 -1.3341,0.59015 -3.77784,0.809413 -5.34644,0.480073 -1.724704,-0.362098 -3.321933,-1.422133 -4.246773,-2.818432 -1.0994,-1.6598 -1.430338,-2.95579 -1.428338,-5.591389 0.0016,-1.974001 0.09284,-2.374765 0.900721,-3.956865 1.47075,-2.880329 3.409413,-4.037381 6.81302,-3.99924 z m 127.83355,0.188102 4.69635,0.08733 c 4.557,0.08497 4.73292,0.108903 5.91902,0.806153 1.49286,0.8776 2.19189,2.181216 2.17299,4.050915 -0.0169,1.672701 -0.62221,2.858474 -1.92701,3.774964 l -1.01906,0.716235 3.42718,6.482292 h -4.27622 l -3.02928,-6.085417 h -1.99522 v 3.042709 3.042708 h -3.96875 z m -84.66719,0.02377 v 15.894121 h -3.42925 l -0.0713,-5.746419 -0.0713,-5.74642 -1.0077,3.563607 c -0.55409,1.959999 -1.30553,4.54582 -1.66966,5.746419 l -0.66198,2.182813 h -3.2923 l -1.71153,-5.754688 -1.711,-5.754687 -0.0713,5.754687 -0.0713,5.754172 h -3.16466 V 23.810434 h 5.22138 l 1.5565,5.287532 c 0.85595,2.9083 1.61598,5.28915 1.68878,5.29115 0.0728,0.0016 0.79752,-2.347687 1.61076,-5.221388 l 1.47846,-5.225003 z m 61.50632,0 2.22571,0.07597 2.22622,0.07545 2.34043,6.482292 c 1.2871,3.5653 2.57701,7.112146 2.867,7.882208 l 0.52762,1.400429 -4.03335,-0.154512 -0.53433,-1.794205 -0.53382,-1.794206 -5.81049,0.148828 -0.53176,1.785937 -0.53175,1.785938 h -1.97352 c -1.46326,0 -1.9436,-0.08548 -1.8588,-0.330729 0.0629,-0.181901 1.35332,-3.757901 2.86752,-7.946803 z m 59.28373,0 2.50526,4.440557 c 1.37782,2.442199 2.71531,4.852935 2.97244,5.357294 0.46151,0.905801 0.46767,0.851363 0.46767,-4.430736 V 23.8114 h 3.70417 v 15.895671 l -2.1513,-0.077 -2.15077,-0.07648 -2.23811,-3.836459 c -1.2309,-2.110099 -2.58429,-4.491296 -3.00757,-5.291666 l -0.76947,-1.455209 v 5.357813 5.29e-4 5.357813 h -3.7119 l 0.0703,-7.871355 0.0698,-7.87187 z m -93.94466,5.3e-4 2.22622,0.07545 2.22622,0.07545 2.33991,6.482291 c 1.2871,3.565301 2.57754,7.112146 2.86753,7.882208 l 0.5271,1.400429 -4.03335,-0.154511 -0.53382,-1.794206 -0.53382,-1.794206 -5.81101,0.148828 -0.53175,1.785938 -0.53175,1.785937 h -1.97301 c -1.46325,0 -1.94412,-0.08548 -1.85931,-0.330729 0.0629,-0.181901 1.35332,-3.757901 2.86752,-7.946803 z m -90.344875,0.0186 h 11.111984 v 2.910417 h -7.14375 v 3.439583 h 6.614584 v 2.910417 h -6.614584 v 3.704167 h 7.14375 v 1.455208 1.455209 H 82.019285 Z m 66.675005,0 h 11.11198 v 2.910417 h -7.14375 v 3.439583 h 6.61458 v 2.910417 h -6.61458 v 3.704167 h 7.14375 v 1.455208 1.455209 h -11.11198 z m 66.675,0 h 13.22917 v 3.175 h -4.7625 v 6.35 6.350001 h -3.70417 V 26.98596 h -4.7625 z m -148.431771,5.3e-4 4.167187,0.001 c 4.740799,0.0017 5.820633,0.216768 7.137033,1.423168 0.773959,0.7093 0.956786,1.086114 1.062466,2.185912 0.152299,1.584601 -0.374687,2.798641 -1.516187,3.492813 l -0.765326,0.465603 0.954463,0.51418 c 1.292188,0.695902 2.044563,2.370858 1.799373,4.005959 -0.2228,1.485799 -1.632619,3.132175 -3.009119,3.514513 -0.5314,0.14759 -2.960619,0.268963 -5.398119,0.269751 l -4.431771,0.0021 z m 128.601971,0.04186 c 3.47847,0.0034 4.40141,0.334477 5.71076,1.643827 1.19881,1.198801 1.64305,2.724682 1.31,4.499984 -0.4757,2.5356 -2.49703,3.828769 -6.34173,4.05815 l -2.54507,0.151929 v 2.739366 2.739369 h -3.97701 l 0.0703,-7.871354 0.0703,-7.871354 4.04678,-0.07338 c 0.60981,-0.01101 1.15879,-0.01702 1.65571,-0.01654 z M 118.6832,26.51001 c -0.57274,-0.02379 -1.1623,0.102251 -1.72083,0.395843 -1.26544,0.665099 -1.8317,1.548773 -2.17299,3.389974 -0.5191,2.8003 0.52208,5.782905 2.26498,6.487975 1.7885,0.723501 3.84221,-0.127982 4.66121,-1.932181 0.69421,-1.528802 0.69789,-4.670155 0.007,-6.191353 -0.59909,-1.319583 -1.77957,-2.097916 -3.03961,-2.150258 z m 133.42132,0.09715 c -1.43391,-0.0208 -2.43783,0.592593 -3.26337,1.994194 -0.41814,0.709901 -0.52807,1.369994 -0.52607,3.147094 0.004,2.676502 0.62334,4.153874 2.03244,4.848284 1.8395,0.906499 3.95206,0.274624 4.89376,-1.463477 0.35261,-0.650801 0.47242,-1.474314 0.47542,-3.252515 0.006,-3.707199 -1.04148,-5.236279 -3.61218,-5.27358 z M 70.906269,26.721367 v 1.890323 1.890324 L 72.692206,30.3382 c 1.949188,-0.179099 2.71198,-0.721196 2.71198,-1.926497 0,-1.166411 -0.861325,-1.690336 -2.778126,-1.690336 z m 122.767181,0 v 2.248958 2.248959 h 1.68362 c 2.25998,0 3.07888,-0.597959 3.07888,-2.248959 0,-1.6511 -0.81888,-2.248958 -3.07888,-2.248958 z m 40.48126,0 v 2.116667 2.116666 h 1.68413 c 2.20158,0 3.07837,-0.608287 3.07837,-2.135785 0,-1.625812 -0.65452,-2.097548 -2.91042,-2.097548 z m -59.70851,0.833025 c -0.0178,-0.0056 -0.0302,0.0071 -0.0367,0.03979 -0.0521,0.261901 -0.4937,1.660853 -0.98133,3.108855 l -0.88677,2.632913 h 1.99523 c 1.61952,0 1.96814,-0.07126 1.85053,-0.377753 -0.0797,-0.2076 -0.53594,-1.606656 -1.01389,-3.108854 -0.4182,-1.314408 -0.80264,-2.255613 -0.92708,-2.294951 z m 34.66094,0 c -0.0178,-0.0056 -0.0302,0.0071 -0.0367,0.03979 -0.0521,0.261901 -0.49371,1.660853 -0.98134,3.108855 l -0.88677,2.632397 h 1.99523 c 1.61951,0 1.96763,-0.07075 1.85002,-0.377237 -0.0797,-0.2076 -0.53594,-1.606656 -1.01389,-3.108854 -0.4182,-1.314408 -0.80213,-2.255613 -0.92656,-2.294951 z M 70.906269,33.071367 v 2.014347 l 5.29e-4,2.014347 1.832446,-0.10387 c 2.209321,-0.124899 2.929538,-0.623149 2.929538,-2.026748 0,-1.517161 -0.565449,-1.898076 -2.81895,-1.898076 z"
     id="rect828" />
  <path
     d="m 24.077,30.69 v -9.7896 h 3.7042 v 19.579 H 24.077 Z"
     id="path6"
     inkscape:connector-curvature="0"
     style="fill:#052c4a;stroke-width:0.26458001" />
</svg>
