<svg width="181.86mm" height="164.08mm" version="1.1" viewBox="0 0 181.86 164.08" xmlns="http://www.w3.org/2000/svg">
 <g transform="translate(-15.408 -14.549)">
  <path d="m100.72 177.71c0-0.50756 1.3243-3.1825 2.943-5.9443l2.943-5.0214-2.4348-1.7338c-3.2597-2.3211-3.9365-2.2119-6.8487 1.1048-1.3708 1.5612-3.9949 3.2888-5.8314 3.839-3.6673 1.0988-10.767 1.2364-13.258 0.25699-1.4131-0.55571-1.2495-0.91851 1.5045-3.3366 3.3479-2.9395 7.3564-5.2296 10.739-6.1356 1.8651-0.49946 1.4435-0.80738-3.2999-2.41l-5.4382-1.8373-1.7462 2.2199c-3.5398 4.5001-11.682 6.4178-19.796 4.6625l-2.5593-0.55366 4.4667-3.5408c2.4567-1.9474 5.8872-4.0096 7.6234-4.5826l3.1567-1.0418-9.275-4.7365-2.1328 2.0059c-2.6466 2.4892-6.0623 3.8207-9.8013 3.8207-3.7781 0-11.527-1.8118-11.527-2.6952 0-1.9592 9.6207-6.2843 15.33-6.8916 2.0167-0.21452 1.9585-0.34099-1.3673-2.9688l-3.4737-2.7448-3.3249 1.7347c-4.204 2.1933-10.016 1.85-16.503-0.97472l-4.6469-2.0236 4.6469-2.1415c3.3288-1.534 6.1375-2.1492 9.9019-2.1687 3.3467-0.0161 5.0506-0.34131 4.6921-0.89209-4.3996-6.76-4.8876-7.2663-6.5347-6.7808-7.2445 2.1355-12.243 1.2374-18.712-3.3619l-3.9959-2.841 3.8405-0.96705c5.313-1.3378 11.575-1.2004 14.486 0.31792 1.344 0.70095 2.5733 1.2744 2.7318 1.2744 0.15864 0-0.35207-1.7276-1.1347-3.839-1.3472-3.635-1.5967-3.839-4.6936-3.839-4.004 0-7.0502-1.5226-10.522-5.2592-2.8089-3.0232-5.4609-6.7131-5.4609-7.5982 0-1.1446 9.9996 1.1119 13.434 3.0314 3.384 1.8913 3.6282 1.9208 3.6282 0.4372 0-2.8182-1.624-5.9673-3.0774-5.9673-2.9693 0-7.1015-3.5496-9.2381-7.9355-2.2246-4.5665-3.685-9.9799-2.6923-9.9799 0.30889 0 2.4183 0.94087 4.6876 2.0908 4.0777 2.0663 8.6017 6.4845 8.627 8.4252 0.0064 0.58039 0.36052 0.46331 0.84004-0.27859 0.45486-0.70382 0.81809-3.1992 0.80719-5.5452-0.01935-3.8696-0.27407-4.4239-2.7595-5.9718-4.0488-2.5215-6.5788-8.1683-6.5788-14.684 0-2.9505 0.33137-5.3645 0.73638-5.3645 1.5605 0 8.4596 8.3616 9.4999 11.514l1.0938 3.3142 4.2146-11.402-2.6116-2.9745c-1.4364-1.6359-2.8718-4.3614-3.1898-6.0566-0.64384-3.432 0.0761-11.38 1.1258-12.43 0.37238-0.37238 1.9739 1.2235 3.559 3.5463 2.0272 2.9706 3.005 5.5033 3.2966 8.5386l0.41465 4.3154 2.9928-4.444c2.4013-3.5658 2.8003-4.7108 2.0188-5.7942-3.1281-4.3361-3.3154-9.5407-0.57071-15.853l1.4838-3.4124 1.7423 3.839c0.99852 2.2001 1.7672 5.7469 1.8006 8.308l0.05836 4.469 2.7117-2.6282c2.5453-2.467 2.6391-2.7673 1.5287-4.8956-1.7211-3.2988-1.4601-8.0713 0.68276-12.482 1.0319-2.124 2.1228-3.8618 2.4243-3.8618 0.8343 0 2.5244 6.2437 2.5244 9.326 0 1.5014-0.3974 3.4723-0.88312 4.3799-1.2374 2.3122-0.38467 2.0638 3.4245-0.99739 2.9106-2.3391 3.2412-2.976 2.8371-5.4665-0.53686-3.3083 2.0234-8.4541 5.4771-11.009l2.209-1.6338-0.49017 4.6197c-0.26956 2.5408-0.73222 5.2325-1.028 5.9816-0.42159 1.0676 0.05159 1.3787 2.1901 1.4395 1.5004 0.04256 4.2717 0.3384 6.1586 0.65716l3.4307 0.57961-2.0653 1.5979c-3.4022 2.6323-7.4327 3.4188-10.644 2.077-2.5935-1.0836-3.0101-1.0174-5.5954 0.88996l-2.7932 2.0608 4.218 0.01289c5.7039 0.01935 6.9179 0.87671 4.4404 3.1423-4.4385 4.059-9.3627 5.3841-13.774 3.7067-1.9045-0.72406-2.4446-0.439-4.7976 2.5319l-2.6516 3.3478 5.5952-0.52248c3.3259-0.31051 5.5952-0.19443 5.5952 0.28665 0 1.0463-4.9972 5.7767-7.4087 7.0133-1.0249 0.52551-3.5203 0.9579-5.5453 0.96086-3.2551 0.0064-3.8656 0.32608-5.2679 2.7726-0.87238 1.522-1.903 3.5899-2.2903 4.5955-0.70369 1.8272-0.70198 1.8271 2.8658-0.14897 1.9634-1.0874 5.0621-2.2506 6.886-2.5849l3.316-0.60779-2.4194 4.4452c-2.9345 5.3917-6.1431 7.8227-11.055 8.3764-3.6174 0.40772-3.7203 0.50632-4.5558 4.3652-0.47011 2.1715-1.0662 5.2918-1.3247 6.934-0.44171 2.8066-0.39302 2.8834 0.81083 1.2797 2.7957-3.7245 5.673-6.3294 9.4106-8.5198 2.1535-1.262 4.0631-2.1469 4.2435-1.9664 0.51458 0.51461-1.7586 8.5017-3.2278 11.341-1.8003 3.4796-4.1791 5.4933-8.0551 6.8189-2.7864 0.95293-3.2962 1.5221-3.5372 3.9486-0.15477 1.5593-0.02257 4.5553 0.29181 6.6577l0.57323 3.8225 1.9642-4.0755c2.1366-4.4332 4.6052-7.3961 8.4666-10.162l2.483-1.7784-0.58364 6.2797c-0.69537 7.482-3.1767 12.503-7.1357 14.439-1.5143 0.74063-2.7608 1.7305-2.77 2.1997-0.0097 0.4692 1.0706 3.1565 2.3995 5.9718l2.4162 5.1187 1.0381-4.3099c1.0036-4.1666 6.4473-12.599 8.2005-12.702 0.99446-0.0587 1.6161 9.7742 0.87119 13.78-0.2802 1.5067-1.6466 3.8765-3.0364 5.2663-1.3898 1.3898-2.5269 2.757-2.5269 3.0382 0 0.78532 6.9545 8.1511 7.696 8.1511 0.35955 0 0.27601-1.4876-0.1854-3.3057-0.63465-2.5003-0.5001-4.6289 0.5523-8.7368 0.76524-2.9871 1.7139-5.7537 2.1082-6.148 0.39428-0.39424 1.9141 1.6791 3.3774 4.6075 3.016 6.0356 3.4584 11.272 1.3042 15.438-1.132 2.1891-1.1673 2.8035-0.21313 3.7142 1.3811 1.3182 7.7581 4.7364 8.1343 4.3601 0.14735-0.14723-0.33101-1.4678-1.0627-2.9345-1.5321-3.0712-2.7508-14.672-1.5413-14.672 1.0624 0 8.3885 7.6145 9.5906 9.968 0.52344 1.0249 0.9517 3.9584 0.9517 6.519 0 4.6391 0.0129 4.6604 3.4297 6.0279 4.9987 2.0001 5.232 1.7883 2.9516-2.68-1.1375-2.2288-2.4221-5.6847-2.8548-7.68l-0.78671-3.6277 5.108 2.7226c6.4545 3.4402 9.3453 7.1274 9.8701 12.589 0.37045 3.8552 0.63195 4.2507 3.7358 5.6503 1.8356 0.82773 4.5337 2.3875 5.9958 3.4662 2.6076 1.9238 2.7008 1.9314 4.88 0.39695 1.2219-0.86039 3.8532-2.3901 5.8474-3.3993 3.0165-1.5266 3.6257-2.2528 3.6257-4.3214 0-3.4928 1.4349-6.8914 4.0802-9.6642 2.604-2.7294 9.4759-6.9613 10.173-6.2645 0.7395 0.73952-1.397 8.3491-3.2176 11.46-0.90806 1.5518-1.651 2.985-1.651 3.1849 0 0.19994 1.8235-0.35827 4.0523-1.2405l4.0523-1.604-0.27839-3.8741c-0.36271-5.0473 1.3705-8.5795 6.7928-13.843l4.3395-4.2127-0.38373 6.4606c-0.21107 3.5533-0.99219 7.6803-1.7359 9.171-0.82205 1.6479-0.99476 2.7104-0.44054 2.7104 1.1553 0 8.3384-4.5081 8.3404-5.2344 1e-3 -0.29828-0.57196-1.6419-1.2729-2.9859-1.9864-3.8088-1.5667-8.67 1.2655-14.657 1.402-2.9636 2.8846-5.1809 3.2948-4.9274 1.5041 0.92958 2.8841 8.2782 2.5144 13.389l-0.38002 5.2537 4.2283-4.4325 4.2283-4.4325-2.6257-2.7171c-1.59-1.6453-2.9709-4.265-3.5009-6.6415-0.90308-4.0491-0.34163-12.711 0.82387-12.711 0.90766 0 4.8682 4.802 6.3939 7.7526 0.69094 1.3361 1.5687 3.8814 1.9506 5.6562l0.69433 3.2269 2.284-4.4505c2.9305-5.7102 2.8769-6.5482-0.54793-8.5689-3.7333-2.2027-5.8577-6.9125-6.3742-14.132-0.39863-5.5715-0.33535-5.8371 1.1934-5.0088 3.7415 2.0272 9.6549 10.128 9.7757 13.392l0.0631 1.7062 0.7332-1.7062c0.40326-0.93845 0.76018-4.0449 0.79315-6.9032l0.06-5.1969-3.3675-1.0089c-4.437-1.3294-8.0304-5.7957-9.8337-12.222-0.78819-2.809-1.2488-5.2916-1.0236-5.5169 0.94736-0.94735 7.4592 3.3526 10.811 7.1386l3.6189 4.088-0.56977-2.9859c-2.1414-11.222-2.074-11.091-5.6625-11.091-2.4837 0-4.0545-0.66444-6.3635-2.6918-2.8524-2.5044-6.9332-8.9807-6.1514-9.7625 0.55885-0.55885 8.204 1.9547 10.479 3.4453 2.6083 1.709 2.6022 1.429-0.0851-3.8741-2.0082-3.9631-2.3644-4.2541-4.6038-3.7623-3.2704 0.71829-7.4835-1.2109-11.135-5.0987l-2.9859-3.1791 5.7174 0.34259c6.1804 0.37035 6.1372 0.45012 2.2012-4.0677-1.3067-1.4999-2.2646-1.7158-6.1741-1.3916-4.882 0.40488-8.4863-1.0753-11.957-4.9101-1.547-1.7094-1.5283-1.736 1.3358-1.8898 1.5977-0.08577 4.0566-0.07319 5.4642 0.02902l2.5593 0.18379-2.3295-2.338c-2.1971-2.2051-2.5014-2.2758-5.3536-1.2445-3.4616 1.2518-6.634 0.76853-10.166-1.5485l-2.4598-1.6136 3.7562-0.96708c2.0659-0.53189 4.1401-1.0865 4.6093-1.2324 0.46921-0.14606 1.5832 0.11124 2.4754 0.57174 1.3898 0.71713 1.5202 0.60895 0.90956-0.75512-0.39201-0.87571-0.86975-3.6093-1.0616-6.0746-0.42317-5.4368 0.79801-5.4291 4.3888 0.02902 1.8644 2.8333 2.2931 4.3302 2.0097 7.0167-0.33529 3.1787-0.11308 3.6014 3.2109 6.1071l3.5711 2.692-0.86799-3.2519c-0.92774-3.4758 0.61775-13.229 1.9644-12.397 1.4092 0.87093 4.3008 8.2012 4.2957 10.89-3e-3 1.5301-0.59436 3.9116-1.3144 5.2923-1.2722 2.4397-1.23 2.5896 1.4982 5.3178l2.8073 2.8073 0.0287-4.8912c0.0168-2.8725 0.67357-6.2996 1.5911-8.3036l1.5623-3.4125 1.5857 3.4125c1.9201 4.1319 2.1205 11.396 0.37793 13.7-1.7464 2.3089-1.6306 3.15 1.0393 7.5481 2.7131 4.4694 3.4692 4.8654 2.9845 1.5631-0.36482-2.4857 4.5017-13.019 6.2864-13.606 1.13-0.37203 2.0328 3.5815 2.0328 8.9015 0 4.3103-1.9666 9.1079-4.4451 10.844-1.6397 1.1485-1.6341 1.2464 0.39395 6.8847l2.0573 5.7197 2.3308-4.764c1.282-2.6202 3.7461-5.9334 5.4758-7.3627l3.145-2.5987 0.26517 4.4982c0.40731 6.9093-1.1941 11.301-5.504 15.095-3.2244 2.8382-3.7108 3.7128-3.6589 6.5783 0.033 1.8177 0.33625 4.0062 0.67395 4.8633 0.54516 1.3837 0.7536 1.2952 1.8595-0.78974 1.1496-2.1671 10.302-8.8732 12.11-8.8732 1.1709 0-0.0373 4.9339-2.4496 10.004-2.1914 4.6052-5.199 7.3935-9.0056 8.3489-1.7084 0.42878-2.3041 1.2331-2.6943 3.6377-0.63645 3.922-0.30319 4.2013 2.4392 2.0441 2.2428-1.7642 10.372-3.9194 12.853-3.4077 1.035 0.21346 0.55989 1.3527-2.1264 5.0986-3.7121 5.1763-8.846 8.3995-13.379 8.3995-2.2112 0-2.708 0.4735-3.9155 3.7315l-1.383 3.7315 4.1305-1.7451c3.808-1.6088 4.601-1.661 10.157-0.66815 3.3144 0.59232 6.0262 1.3362 6.0262 1.653 0 1.1882-8.4489 6.0487-12.122 6.9736-3.1346 0.78929-4.3961 0.72022-7.0428-0.38564-1.7733-0.74096-3.3183-1.3472-3.4332-1.3472-0.17773 0-3.8164 5.1784-5.7192 8.1393-0.40727 0.63372 0.93837 0.80957 4.322 0.56482 3.766-0.27246 5.9461 0.0889 9.3358 1.5471 2.4323 1.0464 4.4224 2.1879 4.4224 2.5368s-1.9707 1.4533-4.3793 2.4543c-5.5042 2.2874-12.169 2.3873-15.698 0.23521l-2.5883-1.5784-3.8101 3.3621c-2.6504 2.3388-3.2386 3.1962-1.9325 2.8171 2.681-0.7782 7.7099 0.77779 12.638 3.9105l4.2524 2.7029-3.4124 1.1949c-5.287 1.8513-12.671 1.5997-16.15-0.55024-1.6085-0.99414-3.0853-2.2729-3.2816-2.8416-0.24831-0.71913-1.8906-0.28129-5.3923 1.4377-4.7063 2.3103-4.8926 2.5116-2.8526 3.0817 4.839 1.3522 12.362 7.0744 11.384 8.6581-0.62547 1.012-11.709 0.89547-14.464-0.15213-1.2586-0.47853-3.4098-2.0705-4.7803-3.5376l-2.4919-2.6676-5.2023 1.5751c-4.6935 1.4211-5.0032 1.6519-3.1665 2.3602 1.1197 0.4318 2.9174 1.1974 3.9949 1.7013 2.5707 1.2022 8.7048 6.471 8.7048 7.4769 0 0.43266-2.8983 0.78664-6.4407 0.78664-7.2154 0-10.089-1.093-13.485-5.1291-1.9599-2.3292-2.4364-2.5155-4.1539-1.6237-4.0733 2.1149-4.1041 2.3425-1.0278 7.5914 3.4416 5.8721 3.5009 6.19 1.0885 5.8323-1.2719-0.18863-2.1986-1.3177-3.0079-3.6645-1.8782-5.4464-2.5904-5.4711-4.9341-0.17147-1.2428 2.8101-2.6835 4.843-3.4322 4.843-0.70972 0-1.2904-0.41528-1.2904-0.92284zm-22.694-153.63c-1.1653-1.8854 3.6884-4.9789 7.812-4.9789 2.0853 0 3.7914 0.37006 3.7914 0.82234 0 0.45231-1.4328 1.796-3.1839 2.9859-3.3554 2.28-7.3874 2.8407-8.4195 1.1707zm49.341-1.97-3.1866-2.9628 3.0719-0.02257c4.1067-0.03224 8.2905 1.5064 9.3163 3.423 1.2664 2.3663 1.103 2.5257-2.5899 2.5257-2.7287 0-4.0728-0.60231-6.6116-2.9628z" fill="#37c871" stroke-width=".85311"/>
  <g fill="#f55" aria-label="P">
   <path d="m102.95 44.461c-10.092 0-17.23 1.3538-22.03 3.6922 1.9692 5.1691 2.3384 11.815 2.3384 15.507v61.783c0 5.1691 3.9383 8.2459 9.2305 8.2459 4.5537 0 7.8767-2.2153 9.2305-3.5691-2.0922-4.7998-2.3384-10.83-2.3384-14.646v-16.861h2.9538c24.368 0 37.906-10.215 37.906-28.799 0-17.969-13.292-25.353-37.291-25.353zm-1.3538 48.614h-2.2153v-42.829c1.1077-0.12307 2.3384-0.12307 3.9383-0.12307 14.276 0 19.199 8.492 19.199 20.922 0 13.046-5.1691 22.03-20.922 22.03z" fill="#f55" stroke-width="3.0768"/>
  </g>
 </g>
</svg>
