<svg width="181.86mm" height="164.08mm" version="1.1" viewBox="0 0 181.86 164.08" xmlns="http://www.w3.org/2000/svg">
 <g transform="translate(-15.408 -14.549)">
  <path d="m101.23 170.29c0-0.46115 1.2032-2.8914 2.6738-5.4007l2.6738-4.5622-2.2122-1.5752c-2.9616-2.1088-3.5765-2.0096-6.2224 1.0038-1.2454 1.4184-3.6296 2.988-5.2981 3.4879-3.332 0.99828-9.7826 1.1233-12.045 0.23349-1.2839-0.50489-1.1352-0.83451 1.3669-3.0314 3.0418-2.6707 6.6837-4.7514 9.7573-5.5745 1.6945-0.45378 1.3115-0.73354-2.9981-2.1896l-4.9409-1.6693-1.5865 2.0169c-3.2161 4.0886-10.613 5.8309-17.985 4.2361l-2.3253-0.50303 4.0582-3.217c2.232-1.7693 5.3488-3.6429 6.9262-4.1635l2.868-0.94653-8.4268-4.3033-1.9377 1.8225c-2.4046 2.2616-5.5079 3.4713-8.9049 3.4713-3.4326 0-10.472-1.6461-10.472-2.4487 0-1.78 8.7409-5.7096 13.928-6.2613 1.8323-0.19491 1.7794-0.30981-1.2422-2.6974l-3.156-2.4937-3.0208 1.576c-3.8195 1.9927-9.1002 1.6808-14.994-0.88558l-4.222-1.8385 4.222-1.9456c3.0244-1.3938 5.5762-1.9526 8.9964-1.9704 3.0406-0.0146 4.5887-0.3101 4.263-0.81051-3.9973-6.1418-4.4406-6.6018-5.9371-6.1606-6.582 1.9402-11.123 1.1243-17.001-3.0545l-3.6305-2.5812 3.4893-0.87861c4.8271-1.2155 10.517-1.0906 13.161 0.28884 1.2211 0.63686 2.3379 1.1579 2.482 1.1579 0.14413 0-0.31987-1.5696-1.0309-3.4879-1.224-3.3026-1.4507-3.4879-4.2644-3.4879-3.6378 0-6.4054-1.3834-9.5597-4.7782-2.552-2.7468-4.9615-6.0992-4.9615-6.9033 0-1.0399 9.0852 1.0102 12.206 2.7542 3.0745 1.7184 3.2964 1.7451 3.2964 0.39722 0-2.5605-1.4755-5.4216-2.7959-5.4216-2.6977 0-6.4521-3.225-8.3933-7.2098-2.0212-4.1489-3.348-9.0673-2.4461-9.0673 0.28064 0 2.1971 0.85483 4.2589 1.8996 3.7048 1.8773 7.815 5.8915 7.838 7.6547 0.0058 0.52731 0.32755 0.42094 0.76322-0.25311 0.41326-0.63945 0.74327-2.9066 0.73337-5.0381-0.01759-3.5157-0.24901-4.0194-2.5072-5.4257-3.6785-2.2909-5.9771-7.4213-5.9771-13.341 0-2.6806 0.30106-4.8739 0.66904-4.8739 1.4178 0 7.686 7.5969 8.6311 10.461l0.99377 3.0111 3.8292-10.359-2.3728-2.7025c-1.305-1.4863-2.6092-3.9626-2.8981-5.5027-0.58496-3.1181 0.06914-10.34 1.0228-11.293 0.33833-0.33833 1.7934 1.1116 3.2335 3.2219 1.8418 2.699 2.7302 5 2.9951 7.7578l0.37673 3.9207 2.7191-4.0376c2.1817-3.2397 2.5442-4.28 1.8342-5.2643-2.842-3.9396-3.0122-8.6682-0.51852-14.403l1.3481-3.1004 1.583 3.4879c0.90721 1.9989 1.6056 5.2213 1.636 7.5483l0.05302 4.0603 2.4637-2.3879c2.3125-2.2414 2.3977-2.5143 1.3889-4.4479-1.5637-2.9971-1.3265-7.3332 0.62032-11.34 0.93753-1.9297 1.9287-3.5087 2.2026-3.5087 0.75801 0 2.2935 5.6727 2.2935 8.4732 0 1.3641-0.36106 3.1547-0.80236 3.9793-1.1243 2.1007-0.34949 1.8751 3.1114-0.90618 2.6445-2.1251 2.9448-2.7038 2.5776-4.9666-0.48776-3.0057 1.8383-7.681 4.9762-10.002l2.0069-1.4844-0.44534 4.1972c-0.24491 2.3085-0.66526 4.754-0.93401 5.4346-0.38303 0.96999 0.04688 1.2527 1.9898 1.3079 1.3632 0.03867 3.8811 0.30745 5.5954 0.59706l3.117 0.52661-1.8765 1.4518c-3.0911 2.3916-6.7529 3.1061-9.6705 1.8871-2.3563-0.98455-2.7349-0.92434-5.0837 0.80857l-2.5378 1.8723 3.8323 0.01167c5.1823 0.01757 6.2852 0.79653 4.0344 2.8549-4.0326 3.6878-8.5064 4.8917-12.515 3.3677-1.7303-0.65785-2.2211-0.39885-4.3589 2.3004l-2.4091 3.0417 5.0835-0.4747c3.0217-0.28211 5.0835-0.17665 5.0835 0.26043 0 0.95059-4.5402 5.2485-6.7311 6.3719-0.93117 0.47745-3.1983 0.8703-5.0381 0.87299-2.9574 0.0058-3.5121 0.29626-4.7862 2.5191-0.7926 1.3828-1.729 3.2616-2.0808 4.1752-0.63933 1.6601-0.63778 1.66 2.6037-0.13534 1.7839-0.98797 4.5992-2.0448 6.2562-2.3485l3.0128-0.55221-2.1981 4.0387c-2.6661 4.8986-5.5813 7.1073-10.044 7.6104-3.2866 0.37044-3.3801 0.46002-4.1391 3.966-0.42712 1.9729-0.96872 4.8078-1.2036 6.2999-0.40131 2.5499-0.35708 2.6197 0.73668 1.1626 2.54-3.3839 5.1542-5.7505 8.55-7.7406 1.9565-1.1466 3.6915-1.9505 3.8555-1.7866 0.46752 0.46755-1.5977 7.7242-2.9326 10.304-1.6357 3.1614-3.7969 4.991-7.3184 6.1953-2.5316 0.86578-2.9948 1.3829-3.2137 3.5875-0.14062 1.4167-0.0205 4.1387 0.26512 6.0488l0.5208 3.473 1.7846-3.7028c1.9412-4.0277 4.1841-6.7197 7.6923-9.2324l2.2559-1.6158-0.53027 5.7055c-0.63178 6.7977-2.8862 11.36-6.4831 13.119-1.3758 0.67291-2.5083 1.5722-2.5166 1.9986-0.0088 0.42628 0.97268 2.8678 2.1801 5.4256l2.1953 4.6506 0.94318-3.9158c0.91181-3.7856 5.8577-11.446 7.4505-11.54 0.90352-0.0533 1.4684 8.8804 0.79152 12.519-0.25457 1.3689-1.496 3.522-2.7587 4.7847-1.2627 1.2627-2.2958 2.5048-2.2958 2.7603 0 0.71349 6.3185 7.4057 6.9922 7.4057 0.32667 0 0.25076-1.3515-0.16845-3.0034-0.57661-2.2716-0.45436-4.2056 0.50179-7.9378 0.69526-2.714 1.5572-5.2275 1.9154-5.5857 0.35822-0.35818 1.7391 1.5256 3.0686 4.1862 2.7402 5.4837 3.1421 10.241 1.1849 14.026-1.0285 1.9889-1.0606 2.5472-0.19364 3.3745 1.2548 1.1977 7.0486 4.3032 7.3904 3.9614 0.13388-0.13377-0.30074-1.3335-0.96553-2.6662-1.392-2.7904-2.4992-13.331-1.4003-13.331 0.96521 0 7.6214 6.9181 8.7135 9.0564 0.47557 0.93115 0.86467 3.5964 0.86467 5.9228 0 4.2148 0.01167 4.2342 3.1161 5.4766 4.5416 1.8172 4.7535 1.6247 2.6817-2.4349-1.0334-2.0249-2.2006-5.1649-2.5937-6.9776l-0.71476-3.2959 4.6409 2.4736c5.8642 3.1256 8.4906 6.4756 8.9675 11.438 0.33657 3.5026 0.57416 3.862 3.3941 5.1336 1.6677 0.75204 4.1191 2.1692 5.4474 3.1492 2.3691 1.7479 2.4538 1.7548 4.4337 0.36066 1.1102-0.78171 3.5008-2.1715 5.3126-3.0884 2.7406-1.387 3.2942-2.0467 3.2942-3.9262 0-3.1734 1.3036-6.2612 3.707-8.7804 2.3658-2.4798 8.6094-6.3247 9.2424-5.6916 0.67187 0.67189-1.2692 7.5856-2.9234 10.412-0.82502 1.4098-1.5 2.712-1.5 2.8936 0 0.18166 1.6567-0.3255 3.6817-1.127l3.6817-1.4573-0.25293-3.5198c-0.32955-4.5857 1.2452-7.7949 6.1716-12.577l3.9427-3.8275-0.34864 5.8698c-0.19177 3.2284-0.90145 6.9779-1.5771 8.3323-0.74687 1.4972-0.90378 2.4625-0.40025 2.4625 1.0496 0 7.5758-4.0958 7.5777-4.7558 9e-4 -0.271-0.51965-1.4918-1.1565-2.7128-1.8048-3.4605-1.4235-7.8771 1.1497-13.316 1.2738-2.6925 2.6208-4.7071 2.9935-4.4768 1.3665 0.84457 2.6204 7.5212 2.2845 12.165l-0.34527 4.7732 3.8416-4.0271 3.8416-4.0271-2.3856-2.4686c-1.4446-1.4949-2.6992-3.875-3.1808-6.0341-0.82049-3.6788-0.31038-11.549 0.74853-11.549 0.82465 0 4.423 4.3629 5.8092 7.0436 0.62775 1.2139 1.4252 3.5265 1.7722 5.139l0.63083 2.9318 2.0751-4.0435c2.6625-5.188 2.6138-5.9493-0.49782-7.7852-3.3919-2.0013-5.322-6.2804-5.7913-12.84-0.36218-5.062-0.30468-5.3033 1.0843-4.5507 3.3994 1.8418 8.772 9.2017 8.8817 12.167l0.0574 1.5502 0.66614-1.5502c0.36639-0.85262 0.69067-3.675 0.72062-6.2719l0.0545-4.7216-3.0595-0.91664c-4.0312-1.2078-7.2961-5.2657-8.9344-11.105-0.71611-2.5521-1.1346-4.8077-0.92994-5.0123 0.86072-0.86072 6.7771 3.046 9.8222 6.4858l3.2879 3.7141-0.51767-2.7128c-1.9456-10.196-1.8844-10.076-5.1446-10.076-2.2565 0-3.6837-0.60368-5.7816-2.4457-2.5915-2.2754-6.2991-8.1594-5.5888-8.8697 0.50775-0.50774 7.4538 1.776 9.5205 3.1302 2.3698 1.5528 2.3642 1.2983-0.0773-3.5198-1.8246-3.6007-2.1481-3.8651-4.1827-3.4182-2.9713 0.6526-6.7992-1.1002-10.117-4.6324l-2.7128-2.8884 5.1945 0.31126c5.6152 0.33648 5.5759 0.40896 1.9999-3.6957-1.1872-1.3627-2.0575-1.5589-5.6095-1.2643-4.4356 0.36786-7.7103-0.97693-10.863-4.4611-1.4055-1.5531-1.3885-1.5772 1.2136-1.717 1.4516-0.07793 3.6856-0.0665 4.9645 0.02636l2.3253 0.16698-2.1165-2.1242c-1.9962-2.0035-2.2727-2.0677-4.864-1.1307-3.1451 1.1373-6.0273 0.69825-9.2364-1.4069l-2.2349-1.466 3.4127-0.87864c1.877-0.48325 3.7614-0.98709 4.1878-1.1197 0.42629-0.13271 1.4384 0.10106 2.249 0.51946 1.2627 0.65155 1.3811 0.55326 0.82638-0.68606-0.35617-0.79562-0.79021-3.2792-0.96455-5.5191-0.38447-4.9396 0.72503-4.9326 3.9874 0.02636 1.6939 2.5742 2.0834 3.9342 1.8259 6.375-0.30463 2.888-0.10275 3.272 2.9173 5.5486l3.2445 2.4458-0.7886-2.9545c-0.84289-3.1579 0.56126-12.019 1.7847-11.263 1.2803 0.79129 3.9075 7.4512 3.9029 9.8939-2e-3 1.3901-0.54 3.5539-1.1942 4.8084-1.1558 2.2165-1.1175 2.3528 1.3612 4.8314l2.5506 2.5506 0.0261-4.4439c0.0152-2.6098 0.61198-5.7235 1.4456-7.5443l1.4194-3.1004 1.4407 3.1004c1.7445 3.7541 1.9265 10.354 0.34336 12.447-1.5867 2.0978-1.4815 2.8619 0.94422 6.8578 2.465 4.0606 3.1519 4.4204 2.7116 1.4202-0.33146-2.2584 4.09-11.828 5.7115-12.362 1.0266-0.338 1.8469 3.254 1.8469 8.0875 0 3.9162-1.7868 8.275-4.0386 9.8523-1.4897 1.0434-1.4846 1.1324 0.35793 6.2551l1.8691 5.1966 2.1177-4.3284c1.1647-2.3806 3.4035-5.3908 4.975-6.6894l2.8574-2.361 0.24092 4.0868c0.37006 6.2774-1.0849 10.268-5.0007 13.714-2.9295 2.5787-3.3715 3.3733-3.3242 5.9767 0.03 1.6515 0.3055 3.6398 0.61231 4.4185 0.4953 1.2571 0.68468 1.1767 1.6895-0.71752 1.0445-1.9689 9.3596-8.0618 11.002-8.0618 1.0638 0-0.0339 4.4827-2.2255 9.0887-1.991 4.1841-4.7235 6.7174-8.182 7.5854-1.5521 0.38956-2.0934 1.1203-2.4479 3.305-0.57825 3.5633-0.27546 3.8171 2.2162 1.8572 2.0377-1.6028 9.4234-3.561 11.678-3.0961 0.94038 0.19394 0.50868 1.229-1.932 4.6323-3.3727 4.7029-8.0371 7.6314-12.155 7.6314-2.009 0-2.4604 0.4302-3.5575 3.3903l-1.2565 3.3903 3.7528-1.5855c3.4598-1.4617 4.1803-1.5091 9.2278-0.60705 3.0113 0.53816 5.4751 1.214 5.4751 1.5018 0 1.0796-7.6762 5.4955-11.014 6.3359-2.848 0.7171-3.9941 0.65435-6.3988-0.35038-1.6112-0.67319-3.0148-1.224-3.1192-1.224-0.16148 0-3.4674 4.7048-5.1962 7.395-0.37003 0.57576 0.85255 0.73553 3.9267 0.51316 3.4216-0.24754 5.4023 0.0807 8.482 1.4056 2.2099 0.95067 4.018 1.9878 4.018 2.3048s-1.7905 1.3204-3.9788 2.2298c-5.0008 2.0782-11.056 2.169-14.262 0.21371l-2.3516-1.434-3.4616 3.0546c-2.408 2.1249-2.9424 2.9039-1.7558 2.5594 2.4358-0.70703 7.0048 0.70666 11.483 3.5529l3.8636 2.4557-3.1004 1.0857c-4.8035 1.682-11.512 1.4534-14.673-0.49993-1.4614-0.90322-2.8031-2.065-2.9815-2.5818-0.22561-0.65337-1.7177-0.25558-4.8992 1.3062-4.2759 2.099-4.4452 2.2819-2.5918 2.7999 4.3964 1.2286 11.232 6.4275 10.343 7.8663-0.56826 0.91948-10.638 0.81358-13.141-0.13821-1.1435-0.43478-3.098-1.8811-4.3432-3.2141l-2.264-2.4236-4.7265 1.4311c-4.2643 1.2911-4.5456 1.5008-2.8769 2.1444 1.0173 0.3923 2.6506 1.0879 3.6296 1.5457 2.3356 1.0923 7.9087 5.8793 7.9087 6.7931 0 0.39309-2.6333 0.7147-5.8517 0.7147-6.5556 0-9.1665-0.99304-12.252-4.66-1.7807-2.1162-2.2135-2.2854-3.774-1.4752-3.7008 1.9215-3.7287 2.1283-0.93375 6.8972 3.1268 5.3351 3.1807 5.6239 0.98892 5.2989-1.1556-0.17139-1.9976-1.1972-2.7329-3.3293-1.7065-4.9483-2.3534-4.9708-4.4829-0.15579-1.1291 2.5531-2.4381 4.4001-3.1184 4.4001-0.64482 0-1.1724-0.37729-1.1724-0.83844zm-20.619-139.58c-1.0587-1.713 3.3511-4.5236 7.0976-4.5236 1.8946 0 3.4447 0.33622 3.4447 0.74714 0 0.41095-1.3018 1.6317-2.8928 2.7128-3.0485 2.0715-6.7118 2.5809-7.6495 1.0636zm44.829-1.7898-2.8952-2.6919 2.791-0.0205c3.7311-0.02929 7.5324 1.3686 8.4643 3.11 1.1506 2.1499 1.0021 2.2947-2.353 2.2947-2.4792 0-3.7003-0.54723-6.007-2.6919z" fill="#fff" stroke-width=".7751"/>
 </g>
</svg>
